HIERARCHY
ROOT Hips
{
	OFFSET 0.000000 0.000000 0.000000 
	CHANNELS 6 Xposition Yposition Zposition Yrotation Zrotation Xrotation 
	JOINT Lumbar
	{
		OFFSET 0.000000 0.000000 0.000000 
		CHANNELS 3 Zrotation Xrotation Yrotation
		JOINT Neck
		{
			OFFSET 0.000000 0.445665 0.000000 
			CHANNELS 3 Zrotation Xrotation Yrotation
			End Site
			{
				OFFSET 0.000000 0.227535 0.000000 
			}
		}
		JOINT RightShoulder
		{
			OFFSET 0.019635 0.377685 0.194865 
			CHANNELS 3 Zrotation Xrotation Yrotation
			JOINT RightElbow
			{
				OFFSET 0.000000 -0.243375 0.000000 
				CHANNELS 2 Zrotation Yrotation
				JOINT RightWrist
				{
					OFFSET 0.000000 -0.264825 0.000000 
					CHANNELS 2 Zrotation Xrotation
					End Site
					{
						OFFSET 0.006600 -0.176220 0.000990 
					}
				}
			}
		}
		JOINT LeftShoulder
		{
			OFFSET 0.019635 0.377685 -0.194865 
			CHANNELS 3 Zrotation Xrotation Yrotation
			JOINT LeftElbow
			{
				OFFSET 0.000000 -0.243375 0.000000 
				CHANNELS 2 Zrotation Yrotation
				JOINT LeftWrist
				{
					OFFSET 0.000000 -0.264825 0.000000 
					CHANNELS 2 Zrotation Xrotation
					End Site
					{
						OFFSET 0.006600 -0.176220 -0.000990 
					}
				}
			}
		}
	}
	JOINT RightHip
	{
		OFFSET 0.052140 -0.069960 0.075570 
		CHANNELS 3 Zrotation Xrotation Yrotation
		JOINT RightKnee
		{
			OFFSET 0.000000 -0.402270 0.000000 
			CHANNELS 1 Zrotation
			JOINT RightAnkle
			{
				OFFSET 0.000000 -0.404085 0.000000 
				CHANNELS 3 Zrotation Xrotation Yrotation
				End Site
				{
					OFFSET 0.204105 -0.089430 0.008415 
				}
			}
		}
	}
	JOINT LeftHip
	{
		OFFSET 0.052140 -0.069960 -0.075570 
		CHANNELS 3 Zrotation Xrotation Yrotation
		JOINT LeftKnee
		{
			OFFSET 0.000000 -0.402270 0.000000 
			CHANNELS 1 Zrotation
			JOINT LeftAnkle
			{
				OFFSET 0.000000 -0.404085 0.000000 
				CHANNELS 3 Zrotation Xrotation Yrotation
				End Site
				{
					OFFSET 0.204105 -0.089430 -0.008415 
				}
			}
		}
	}
}
MOTION
Frames: 22
Frame Time: 0.02
0.05928 -0.02327 -0.09994 -184.20252 -27.89371 -5.84253 52.22632 5.84767 -7.30409 -24.64966 1.35779 -0.83067 22.94567 -108.1038 15.49595 127.22934 68.36477 34.70686 -5.01622 48.28116 123.25804 -46.7234 126.71357 -81.20775 27.86492 3.66803 27.02612 11.83155 -27.7593 -18.01513 -7.1082 -1.41412 -1.34176 42.87691 -4.09428 17.59712 -32.05356 -8.45008 3.93673 2.79522
0.05664 -0.02315 -0.10281 -184.55125 -27.93612 -5.64233 52.19614 5.6816 -6.7271 -24.50513 1.17419 -0.83067 21.17816 -108.43344 13.75456 127.07111 68.08938 34.6914 -5.15958 49.73804 122.88451 -48.4535 126.90793 -81.7625 28.45055 3.61467 26.76694 11.82732 -27.61563 -17.80209 -7.17402 -1.36555 -1.32677 42.77557 -4.11575 17.56205 -32.01274 -8.44144 3.98258 2.82023
0.05412 -0.02275 -0.10563 -185.00537 -27.91836 -5.35514 52.07834 5.5309 -5.99113 -24.34729 0.99118 -0.83067 19.03873 -108.83662 11.59452 126.84254 67.93153 34.66388 -5.39364 51.46396 122.54444 -50.51352 127.13555 -82.37501 29.44097 3.55592 26.44087 11.77028 -27.18392 -17.54564 -7.21229 -1.31767 -1.31155 42.7434 -4.14513 17.55666 -32.14974 -8.48343 4.02911 2.84856
0.05156 -0.02248 -0.10845 -185.40323 -27.93177 -5.10685 52.00368 5.37416 -5.33824 -24.19573 0.80507 -0.83067 17.08076 -109.2256 9.62603 126.63586 67.69672 34.62807 -5.5767 52.98767 122.20798 -52.4076 127.34303 -82.97942 30.14602 3.49437 26.15144 11.73575 -26.87912 -17.31225 -7.19152 -1.25568 -1.28249 42.6767 -4.17257 17.55169 -32.19703 -8.49978 4.07333 2.87428
0.04895 -0.02218 -0.11136 -185.83883 -27.9293 -4.8592 51.91692 5.2131 -4.63604 -24.04398 0.63115 -0.83067 15.06156 -109.53485 7.6456 126.47198 67.55152 34.64852 -5.79844 54.86651 121.79292 -54.38322 127.57671 -83.52081 31.27589 3.45079 25.83473 11.70576 -26.58736 -17.06394 -7.46157 -1.24999 -1.30968 42.62247 -4.1943 17.49557 -32.28 -8.52692 4.1264 2.90491
0.04646 -0.02189 -0.11407 -186.21873 -27.94565 -4.59062 51.83352 5.06502 -4.00109 -23.88878 0.43155 -0.83067 13.08957 -110.02616 5.5971 126.20085 67.25514 34.55026 -5.96258 56.05109 121.54818 -56.25679 127.75901 -84.18868 31.61574 3.37396 25.55984 11.65459 -26.20303 -16.837 -7.13351 -1.12978 -1.22298 42.55967 -4.22952 17.54831 -32.33232 -8.54385 4.1612 2.92606
0.04421 -0.02168 -0.11626 -186.43355 -28.02696 -4.28194 51.78458 4.94658 -3.57926 -23.73193 0.16525 -0.83068 11.28092 -111.01355 3.41398 125.66609 66.46539 34.11834 -5.94039 55.39641 121.77264 -57.83071 127.82424 -85.35722 29.70644 3.15572 25.4103 11.55613 -25.61425 -16.67623 -5.04133 -0.67142 -0.79322 42.44699 -4.29724 17.9174 -32.24779 -8.51861 4.14337 2.91948
0.04207 -0.02149 -0.11824 -186.58569 -28.12952 -3.95607 51.74109 4.84115 -3.23307 -23.57121 -0.12753 -0.83068 9.54357 -112.17923 1.18649 125.02281 65.52885 33.56836 -5.8584 54.0065 122.16218 -59.27679 127.82915 -86.62151 26.98337 2.91128 25.30642 11.43875 -24.94595 -16.53915 -2.37219 -0.10252 -0.25439 42.32499 -4.37847 18.39021 -32.12811 -8.48163 4.10736 2.90332
0.03991 -0.02131 -0.12031 -186.75702 -28.2235 -3.64074 51.69246 4.73136 -2.8601 -23.40909 -0.41122 -0.83068 7.81254 -113.25612 -0.98857 124.4197 64.69143 33.07948 -5.80739 52.85819 122.47652 -60.74013 127.84121 -87.73223 24.6129 2.71527 25.18595 11.33133 -24.32728 -16.39361 -0.04317 0.40241 0.21603 42.21335 -4.45524 18.79929 -32.0303 -8.45109 4.081 2.89205
0.03765 -0.02107 -0.12241 -186.97184 -28.311 -3.31099 51.6522 4.61549 -2.44947 -23.25958 -0.68312 -0.83068 5.90645 -114.36931 -3.31556 123.85399 63.72188 32.56219 -5.74332 52.10929 122.80883 -62.3911 127.94444 -89.30494 22.32824 2.37479 25.04557 11.21616 -23.6424 -16.23695 2.62296 0.96814 0.76687 42.07834 -4.52558 19.27839 -31.91356 -8.41774 4.04907 2.87878
0.0356 -0.02095 -0.12439 -187.07912 -28.41762 -3.00811 51.59675 4.51525 -2.13733 -23.0834 -0.98505 -0.83068 4.38492 -115.44708 -5.32985 123.18397 62.9903 32.07182 -5.69125 50.35124 123.12234 -63.6121 127.83744 -89.94317 19.66748 2.31663 24.95836 11.1135 -23.07923 -16.10946 4.71455 1.4299 1.175 41.98881 -4.61196 19.63733 -31.82585 -8.38667 4.02409 2.86719
0.03408 -0.02118 -0.1261 -186.91025 -28.57394 -2.78625 51.50006 4.45457 -2.07993 -22.83123 -1.37043 -0.83068 3.92479 -116.39323 -6.48004 122.26576 62.95636 31.72421 -5.68522 45.96901 123.50233 -63.69269 127.21054 -87.94033 16.17082 3.15378 25.0075 11.04913 -22.88263 -16.05848 5.15875 1.60929 1.17239 42.0275 -4.74303 19.62605 -31.82346 -8.36552 4.02562 2.86395
0.03276 -0.02154 -0.1277 -186.63398 -28.74877 -2.59204 51.388 4.4093 -2.11979 -22.55288 -1.78377 -0.83068 3.84698 -117.29528 -7.31087 121.24389 63.16374 31.40188 -5.69335 40.59357 123.81867 -63.32631 126.36446 -85.00971 12.33191 4.25729 25.10886 10.99847 -22.81074 -16.03596 4.99218 1.67505 1.02095 42.11186 -4.88903 19.49244 -31.851 -8.34665 4.03426 2.86246
0.03136 -0.02183 -0.12935 -186.40248 -28.91393 -2.38381 51.28204 4.35701 -2.11485 -22.28892 -2.1798 -0.83068 3.58608 -118.2108 -8.27795 120.26157 63.25927 31.04022 -5.69547 35.68913 124.07157 -63.17052 125.58966 -82.51621 8.63159 5.16498 25.18606 10.94238 -22.67594 -15.99941 5.04927 1.77103 0.93051 42.17473 -5.0257 19.42331 -31.86646 -8.32601 4.03772 2.85921
0.02992 -0.02214 -0.13099 -186.18502 -29.08472 -2.18078 51.17979 4.30474 -2.11421 -22.0149 -2.59637 -0.83068 3.37073 -119.1607 -9.28071 119.30869 63.36627 30.78598 -5.6931 30.6964 124.75805 -63.03676 124.93623 -79.92258 4.9302 6.38033 25.26626 10.88214 -22.56424 -15.96809 5.34385 1.95817 0.87009 42.24047 -5.17356 19.32063 -31.87533 -8.30814 4.04862 2.85965
0.0286 -0.02244 -0.13262 -185.91471 -29.24841 -1.97409 51.06631 4.25658 -2.12773 -21.75491 -2.97624 -0.83068 3.1456 -120.0257 -10.13724 118.2696 63.49942 30.32307 -5.70505 25.63611 124.47673 -62.68013 123.97389 -77.36372 1.21611 7.02735 25.35247 10.83415 -22.43543 -15.93256 5.00408 1.93092 0.71264 42.31114 -5.30151 19.25703 -31.90429 -8.28514 4.04611 2.85304
0.02758 -0.02268 -0.13424 -185.51624 -29.38411 -1.74752 50.92431 4.21047 -2.148 -21.54663 -3.24954 -0.83068 2.84079 -120.67008 -10.62848 117.03258 63.7307 29.21102 -5.74536 20.8651 121.95991 -62.46371 122.25261 -74.70652 -2.93652 5.96288 25.43914 10.816 -22.2271 -15.87673 2.94731 1.30532 0.30364 42.38543 -5.37028 19.33403 -31.9916 -8.2478 4.00356 2.82585
0.02667 -0.0229 -0.13585 -185.0707 -29.51297 -1.51703 50.77196 4.16906 -2.18035 -21.35212 -3.48444 -0.83068 2.50453 -121.22901 -10.9911 115.7101 63.96889 27.89928 -5.80089 16.03109 118.40405 -61.93701 120.22022 -72.18631 -7.00414 4.33132 25.53078 10.80988 -21.99813 -15.81595 0.29115 0.47364 -0.19472 42.46339 -5.41845 19.45353 -32.0964 -8.20522 3.94764 2.79173
0.0257 -0.02313 -0.13747 -184.65191 -29.64697 -1.29031 50.62493 4.12889 -2.2125 -21.14713 -3.7358 -0.83068 2.15619 -121.8242 -11.4378 114.4177 64.1438 26.7257 -5.85534 11.06361 115.03114 -61.10546 118.30476 -69.88966 -10.7756 3.01056 25.62173 10.79882 -21.78 -15.75841 -2.01753 -0.24177 -0.6395 42.53835 -5.47644 19.55124 -32.1866 -8.16479 3.89869 2.76125
0.02476 -0.02336 -0.13907 -184.20456 -29.77171 -1.05588 50.47398 4.0745 -2.22602 -20.95932 -3.9926 -0.83068 1.93454 -122.42901 -11.76357 113.15891 64.56432 25.36041 -5.88734 6.70228 112.82689 -62.06396 116.48712 -66.38776 -15.93578 1.47683 25.70661 10.78618 -21.55943 -15.6975 -4.66177 -1.05629 -1.14393 42.61862 -5.53332 19.65525 -32.30573 -8.12529 3.84597 2.72862
0.02379 -0.02359 -0.1407 -183.80963 -29.91553 -0.83657 50.32994 4.05131 -2.27963 -20.73899 -4.22824 -0.83068 1.4341 -122.99384 -12.31687 111.81081 64.49262 24.3371 -5.96735 1.13053 108.00577 -59.3223 114.39187 -65.3985 -18.22538 0.24623 25.80626 10.77928 -21.33815 -15.64232 -6.7445 -1.71219 -1.54373 42.69048 -5.58707 19.75775 -32.36861 -8.08274 3.7981 2.69896
0.02269 -0.02382 -0.14239 -183.54892 -30.09865 -0.657 50.19796 4.10727 -2.44296 -20.42875 -4.41744 -0.83068 0.1899 -123.47097 -13.51471 110.24057 62.87165 24.39344 -6.19598 -8.2299 95.66515 -45.60837 111.63229 -71.6908 -12.19809 0.00972 25.93024 10.78726 -21.11306 -15.60145 -7.10217 -1.8763 -1.62932 42.71717 -5.64 19.84639 -32.26977 -8.03179 3.76472 2.67792
